<?xml version="1.0" encoding="UTF-8"?>
<svg id="Laag_1" data-name="Laag 1" xmlns="http://www.w3.org/2000/svg" viewBox="0 0 376.67 289.23">
  <defs>
    <style>
      .cls-1 {
        fill: #013e74;
      }

      .cls-2 {
        fill: #b2cb0b;
      }
    </style>
  </defs>
  <path class="cls-1" d="M51.29,144.61c14.21,4.33,20.7,13.29,20.7,34.61v49.44c0,14.52,7.42,22.87,22.56,22.87h5.56v37.7h-17.92c-38.63,0-58.4-19.78-58.4-55.31v-55.93c0-9.89-5.25-14.52-13.6-14.52H0v-37.7h10.2c8.34,0,13.6-4.63,13.6-14.52v-55.93C23.79,19.78,43.57,0,82.2,0h17.92v37.7h-5.56c-15.14,0-22.56,8.34-22.56,22.87v49.44c0,21.32-6.49,30.28-20.7,34.61Z"/>
  <path class="cls-2" d="M99.8,201.47l27.81-33.37c11.74,15.76,24.72,23.79,40.17,23.79,20.09,0,30.59-12.05,30.59-35.84V53.15h-76.02V12.98h125.77v140.29c0,53.46-26.88,79.72-77.87,79.72-29.05,0-54.69-11.12-70.45-31.52Z"/>
  <path class="cls-1" d="M376.67,125.77v37.7h-10.2c-8.34,0-13.6,4.63-13.6,14.52v55.93c0,35.54-19.78,55.31-58.4,55.31h-17.92v-37.7h5.56c15.14,0,22.56-8.34,22.56-22.87v-49.44c0-21.32,6.49-30.28,20.7-34.61-14.21-4.33-20.7-13.29-20.7-34.61v-49.44c0-14.52-7.42-22.87-22.56-22.87h-5.56V0h17.92c38.63,0,58.4,19.78,58.4,55.31v55.93c0,9.89,5.25,14.52,13.6,14.52h10.2Z"/>
</svg>