<?xml version="1.0" encoding="UTF-8"?>
<svg id="Laag_1" xmlns="http://www.w3.org/2000/svg" viewBox="0 0 968.04 245">
  <defs>
    <style>
      .cls-1 {
        fill: #fff;
      }

      .cls-2 {
        fill: none;
      }

      .cls-3 {
        fill: #b2cb10;
      }
    </style>
  </defs>
  <rect class="cls-2" y="19.44" width="968.04" height="225.56"/>
  <path class="cls-1" d="M39.24,103.68c8.28,2.52,12.06,7.74,12.06,20.16v28.8c0,8.46,4.32,13.32,13.14,13.32h3.24v21.96h-10.44c-22.5,0-34.02-11.52-34.02-32.22v-32.58c0-5.76-3.06-8.46-7.92-8.46h-5.94v-21.96h5.94c4.86,0,7.92-2.7,7.92-8.46v-32.58c0-20.7,11.52-32.22,34.02-32.22h10.44v21.96h-3.24c-8.82,0-13.14,4.86-13.14,13.32v28.8c0,12.42-3.78,17.64-12.06,20.16Z"/>
  <path class="cls-3" d="M67.5,136.8l16.2-19.44c6.84,9.18,14.4,13.86,23.4,13.86,11.7,0,17.82-7.02,17.82-20.88v-59.94h-44.28v-23.4h73.26v81.72c0,31.14-15.66,46.44-45.36,46.44-16.92,0-31.86-6.48-41.04-18.36Z"/>
  <path class="cls-3" d="M275.03,112.5h-73.26c2.7,12.06,12.96,19.44,27.72,19.44,10.26,0,17.64-3.06,24.3-9.36l14.94,16.2c-9,10.26-22.5,15.66-39.96,15.66-33.48,0-55.26-21.06-55.26-49.86s22.14-49.86,51.66-49.86,50.4,19.08,50.4,50.22c0,2.16-.36,5.22-.54,7.56ZM201.41,96.12h47.7c-1.98-12.24-11.16-20.16-23.76-20.16s-21.96,7.74-23.94,20.16Z"/>
  <path class="cls-3" d="M377.27,97.74v55.26h-26.28v-12.06c-5.22,8.82-15.3,13.5-29.52,13.5-22.68,0-36.18-12.6-36.18-29.34s12.06-28.98,41.58-28.98h22.32c0-12.06-7.2-19.08-22.32-19.08-10.26,0-20.88,3.42-27.9,9l-10.08-19.62c10.62-7.56,26.28-11.7,41.76-11.7,29.52,0,46.62,13.68,46.62,43.02ZM349.19,122.4v-9.9h-19.26c-13.14,0-17.28,4.86-17.28,11.34,0,7.02,5.94,11.7,15.84,11.7,9.36,0,17.46-4.32,20.7-13.14Z"/>
  <path class="cls-3" d="M501.65,97.56v55.44h-28.08v-51.12c0-15.66-7.2-22.86-19.62-22.86-13.5,0-23.22,8.28-23.22,26.1v47.88h-28.08V56.16h26.82v11.34c7.56-8.28,18.9-12.78,32.04-12.78,22.86,0,40.14,13.32,40.14,42.84Z"/>
  <path class="cls-3" d="M523.61,27c0-8.82,7.02-15.66,17.46-15.66s17.46,6.48,17.46,15.12c0,9.36-7.02,16.2-17.46,16.2s-17.46-6.84-17.46-15.66ZM527.03,56.16h28.08v96.84h-28.08V56.16Z"/>
  <path class="cls-3" d="M680.21,97.56v55.44h-28.08v-51.12c0-15.66-7.2-22.86-19.62-22.86-13.5,0-23.22,8.28-23.22,26.1v47.88h-28.08V56.16h26.82v11.34c7.56-8.28,18.9-12.78,32.04-12.78,22.86,0,40.14,13.32,40.14,42.84Z"/>
  <path class="cls-3" d="M800.99,112.5h-73.26c2.7,12.06,12.96,19.44,27.72,19.44,10.26,0,17.64-3.06,24.3-9.36l14.94,16.2c-9,10.26-22.5,15.66-39.96,15.66-33.48,0-55.26-21.06-55.26-49.86s22.14-49.86,51.66-49.86,50.4,19.08,50.4,50.22c0,2.16-.36,5.22-.54,7.56ZM727.37,96.12h47.7c-1.98-12.24-11.16-20.16-23.76-20.16s-21.96,7.74-23.94,20.16Z"/>
  <path class="cls-1" d="M868.31,92.7v21.96h-5.94c-4.86,0-7.92,2.7-7.92,8.46v32.58c0,20.7-11.52,32.22-34.02,32.22h-10.44v-21.96h3.24c8.82,0,13.14-4.86,13.14-13.32v-28.8c0-12.42,3.78-17.64,12.06-20.16-8.28-2.52-12.06-7.74-12.06-20.16v-28.8c0-8.46-4.32-13.32-13.14-13.32h-3.24v-21.96h10.44c22.5,0,34.02,11.52,34.02,32.22v32.58c0,5.76,3.06,8.46,7.92,8.46h5.94Z"/>
</svg>