<svg width="128" height="128" viewBox="0 0 128 128" fill="none" xmlns="http://www.w3.org/2000/svg">
<path d="M127.576 18.9451L67.4484 126.329C66.207 128.546 63.0175 128.559 61.7575 126.353L0.437216 18.9554C-0.935558 16.5511 1.12298 13.6388 3.85096 14.1258L64.0433 24.8713C64.4273 24.9399 64.8204 24.9392 65.2044 24.8693L124.138 14.1412C126.857 13.6463 128.925 16.536 127.576 18.9451Z" fill="#013E74"/>
<path d="M92.7162 0.0315123L48.2197 8.73947C47.4883 8.88259 46.9469 9.50159 46.9027 10.2445L44.1656 56.4147C44.1012 57.5022 45.1012 58.3462 46.1639 58.1014L58.5523 55.246C59.7114 54.979 60.7588 55.9986 60.5206 57.1628L56.84 75.1634C56.5923 76.3749 57.7311 77.4108 58.9157 77.0515L66.5674 74.7296C67.7537 74.37 68.8935 75.4088 68.6425 76.6213L62.7934 104.896C62.4274 106.665 64.7828 107.629 65.7652 106.113L66.4214 105.1L102.68 32.8315C103.287 31.6214 102.24 30.2417 100.909 30.4982L88.1572 32.9562C86.9589 33.1869 85.9393 32.0723 86.2775 30.9014L94.6005 2.08523C94.939 0.912315 93.9158 -0.203223 92.7162 0.0315123Z" fill="#B2CB0B"/>
</svg>
